<svg xmlns="http://www.w3.org/2000/svg" xml:space="preserve" width="2000" height="286" data-id="lg_erQP5Gdc9xtQP9FfPQ" data-version="1"><g data-padding="20"><g transform="translate(10 4.94)scale(.96546)"><path fill="#9fa6b2" d="M1160.423 139.883c3.795 9.776 23.08 16.597 44.458 15.724s37.786-9.151 37.822-19.084c0-10.584-18.513-19.208-41.382-19.208-20.086 0-37.268 6.664-40.777 15.792H868.33c-3.792-9.761-23.05-16.571-44.397-15.698s-37.728 9.14-37.762 19.058c0 10.584 18.513 19.152 41.382 19.152 11.011 0 21.538-2.016 29.282-5.6 6.05-2.744 10.043-6.328 11.495-10.192h292.094Z"/><path fill="#9fa6b2" d="M1280.576 175.555c-16.207-7.498-42.478-7.498-58.685 0-6.05 2.8-10.043 6.384-11.495 10.248h-68.002c-15.268-.07-27.569-5.814-27.588-12.88 0-10.781-18.813-19.538-42.108-19.6H955.812c-23.232.056-42.108 8.848-42.108 19.6 0 7.056-12.342 12.824-27.588 12.88h-67.88c-1.453-3.864-5.446-7.448-11.496-10.248-16.185-7.44-42.326-7.414-58.443.056-16.074 7.49-16.02 19.589.121 27.048 16.112 7.393 42.09 7.393 58.201 0 6.05-2.744 10.043-6.272 11.495-10.136h68.002c23.232-.056 42.108-8.848 42.108-19.6 0-7.056 12.342-12.824 27.588-12.88h116.886c15.246.056 27.588 5.824 27.588 12.88 0 10.78 18.813 19.538 42.108 19.6h68.002c1.452 3.864 5.445 7.392 11.495 10.136 16.172 7.5 42.42 7.512 58.625.028s16.232-19.632.06-27.132"/><path fill="#9fa6b2" d="M1178.342 212.29c-11.01 0-21.659 2.017-29.403 5.657-7.018 3.248-11.253 7.56-11.979 12.096h-9.8c-15.368-.056-28.92-4.48-34.244-11.144l-22.627-28.28a51.425 23.8 0 0 0-47.916-15.456h-15.73c-21.296 0-40.414 6.16-47.916 15.4L936.1 218.899a36.905 17.08 0 0 1-34.243 11.144h-9.8c-1.839-10.47-21.666-18.267-44.287-17.416s-39.469 10.027-37.63 20.496a41.092 19.018 0 0 0 69.937 11.928c4.961-2.352 8.591-5.208 10.527-8.288h11.132c21.417-.056 40.414-6.216 47.916-15.512l22.627-28.28a36.663 16.968 0 0 1 34.243-11.032h15.73c15.246 0 28.92 4.368 34.243 11.032l22.627 28.336a51.425 23.8 0 0 0 47.916 15.512h11.132c2.178 3.08 5.687 5.936 10.406 8.288v-.056c8.47 3.64 18.271 5.6 29.403 5.6 22.87.056 41.503-8.512 41.503-19.096.121-10.64-18.27-19.208-41.14-19.264M806.62 97.553l.121-.056c6.05-2.8 10.043-6.384 11.495-10.248h68.002c15.246.056 27.588 5.824 27.588 12.88 0 10.78 18.813 19.538 42.108 19.6h116.886c23.232-.056 42.108-8.848 42.108-19.6 0-7.056 12.342-12.824 27.588-12.88h68.002c1.452 3.864 5.445 7.448 11.495 10.248a41.334 19.13 0 0 0 58.564 0 41.334 19.13 0 0 0 0-27.104 41.334 19.13 0 0 0-58.564 0c-6.05 2.744-10.043 6.272-11.495 10.136h-68.002c-23.232.056-42.108 8.848-42.108 19.6 0 7.056-12.342 12.824-27.588 12.88H955.933c-15.268-.07-27.569-5.814-27.588-12.88 0-10.781-18.813-19.538-42.108-19.6h-68.002c-1.452-3.864-5.445-7.392-11.495-10.136-16.173-7.514-42.444-7.54-58.685-.056-16.236 7.485-16.289 19.644-.12 27.16 16.172 7.514 42.443 7.539 58.684.056"/><path fill="#9fa6b2" d="M879.835 55.099c7.018-3.248 11.253-7.504 11.98-12.096h9.8c15.367.056 28.92 4.48 34.243 11.144l22.627 28.28a51.425 23.8 0 0 0 47.916 15.456h15.73c21.296 0 40.414-6.16 47.916-15.4l22.627-28.336a36.905 17.08 0 0 1 34.243-11.144h9.801c1.838 10.47 21.665 18.267 44.286 17.416 22.62-.85 39.47-10.027 37.631-20.496a41.092 19.018 0 0 0-69.938-11.928c-4.96 2.352-8.59 5.208-10.527 8.288h-11.132c-21.417.056-40.414 6.216-47.916 15.512l-22.627 28.28a36.663 16.968 0 0 1-34.243 11.032h-15.73c-15.246 0-28.919-4.368-34.243-11.032l-22.627-28.336a51.425 23.8 0 0 0-47.916-15.512h-11.132c-2.178-3.08-5.687-5.936-10.406-8.288v.056c-8.47-3.64-18.27-5.6-29.403-5.6a41.442 19.18 0 0 0-29.282 32.76 41.14 19.04 0 0 0 58.322-.056"/><path fill="#056a3c" d="M837.376 114.033q6.98.72 10.4.72 3.43 0 10.4-.96 2.17.72 2.53 1.81.36 1.08.24 2.22t.12 2.22q.24 1.09 2.28 1.81 1.09.36.67 2.1-.43 1.75-1.99 3.79-3.97 5.17-9.38 7.21-8.65 2.17-13.58 2.53-8.18.6-17.8-.6-10.58-1.93-10.22-8.78 0-25.25 11.07-50.74 3.6-8.29 8.17-17.43.96-1.92 1.14-4.33.18-2.4.3-4.69.12-2.28.73-4.08.6-1.81 2.52-2.53 25.01-9.98 39.56-7.69 5.05.12 6.67 3.42 1.62 3.31.36 7.4-1.26 4.08-4.93 7.69t-9.2 4.45q-7.09 2.04-8.65 2.76-3.01 1.45-4.33 3.85-1.69 2.65-3.13 5.05-1.44 2.41-2.04 5.17l-.48 2.65q2.28 1.08 5.59.66 3.3-.42 6.13-.84 2.82-.42 4.57-.06 1.74.36.72 3.54-1.02 3.19-3.73 7.16-2.7 3.96-7.63 5.77-3.13.6-4.27.9t-1.74.42q-.85.12-4.81.36-5.65 9.62-6.86 14.91-.48 2.16.6 2.16m85.13-43.88q4.69.6 6.31 3.31 1.62 2.7 1.26 5.77-.36 3.06-2.22 5.53-1.87 2.46-4.15 2.58-.84 2.53-2.65 3.49-1.8.96-3.96 1.32-2.17.36-4.51.78-2.35.42-4.39 2.11-2.04 1.68-3.43 3.3-1.38 1.63-2.22 3.19-1.44 2.64-2.53 6.49-.24 2.65 2.53 4.93 3.25 2.53 7.09 2.23 3.85-.3 6.19.36 2.35.66 3.55 1.86 2.65 2.77-.48 6.37-6.01 9.62-20.2 11.42-4.21.61-8.41.3-4.21-.3-8.18-3.18-3.97-2.89-6.25-7.82-5.05-11.3.84-26.33 5.65-14.06 16.95-21.64 12.39-8.41 28.86-6.37m21.04 7.68q2.52-1.8 6.25-.84.72.12 1.44.12 2.65-5.41 9.14-5.65 1.68-.12 4.69-.6 3-.48 7.27.24t7.52 2.53q7.09 3.84 8.53 11.06 2.89 10.58-.84 23.08-3.97 13.83-13.46 22.12-4.33 3.85-9.14 4.87-4.81 1.03-8.66 1.15t-7.03.06q-3.19-.06-6.19-.67-6.5-1.32-10.7-6.13-4.93-5.41-4.21-16.83.48-10.1 5.11-20.38t10.28-14.13m21.16 24.17q-3.01.96-5.65.84-1.33 1.32-2.35 2.83-1.02 1.5-2.7 2.76-1.69 1.27-1.69 1.02-2.04 2.89-3.36 5.96-1.32 3.06 0 6.19 4.81.48 7.09-.24 2.29-.72 4.27-2.77 1.98-2.04 3.07-4.81 2.16-5.17 1.32-11.78m57.59-62.76.12-.48 1.08-1.08q1.32-3.13 2.89-3.73.84-.24 2.16-.6t3.49-1.8q.84-1.69 3.48-1.51 2.65.18 5.23 1.69 2.59 1.5 4.21 4.14 1.62 2.65.78 5.47-.84 2.83-1.38 4.21-.54 1.39-1.08 2.59t-1.32 2.7q-.79 1.51-1.99 4.03l-3.97 8.3q-.6 1.56-1.02 1.8t-.78.84q1.08-.24 1.8-.36l1.45-.24q1.68-.24 3.84-.48 1.33.24 2.29.24h1.68q1.44 0 3.49.78 2.04.78 2.64 2.71.6 1.92.12 3.9-.48 1.99-1.92 3.67t-3.73 1.8q-10.46 2.89-14.91 3.13l-.72.84v.12q-1.2 2.89-2.58 7.28-1.38 4.38-3.01 9.49-1.62 5.11-3.3 10.58-1.69 5.47-3.49 10.52-5.77 16.96-8.42 18.4-.96.48-1.98.66t-1.14.3q-4.21-.24-6.98-1.68-2.76-1.44-3.72-2.77-.97-1.32-.48-3 2.28-20.92 9.13-45.81-2.4 0-3.36.48-1.81.96-4.33 1.08h-.12q-1.93-.12-3.49-1.8t-1.92-3.85q-.36-2.16.72-4.45 1.08-2.28 4.33-3.6 3.84-1.09 5.65-1.81 3.49-1.44 5.83-2.04t2.64-.78q.31-.18.43-.3.36-.24 1.8-.24.72-3.49 1.44-7.1.72-3.6 1.81-7.33 2.4-8.66 6.61-14.91m61.79 72.15q-2.29 1.08-4.45 1.68-2.17.6-5.05 1.2-7.58 1.57-10.94 1.81.36 1.2 3.6 2.88 2.17.36 4.75-.66 2.59-1.02 5.41-1.92 2.83-.9 5.53-1.02 2.71-.12 5.11 2.04.97 2.16 1.57 2.52.6.37 1.08.37t1.08.36 1.74 2.76q1.15 2.41-.6 4.57-1.74 2.16-5.35 3.73-3.6 1.56-8.41 2.52t-9.62 1.32q-10.82.85-16.47-1.68-8.18-2.76-10.58-10.94-3.13-10.82 3.48-25.25 3.01-6.73 9.5-14.43 5.65-6.73 12.63-9.73 8.05-3.49 16.83-3.25 9.38.24 12.98 8.18 1.81 4.2.72 11.78-1.92 9.86-5.05 13.94-3.12 3.97-9.49 7.22m-6.98-19q-6.37-1.32-9.98 7.22-1.08 2.28-1.68 4.81 4.09.48 8.66-4.57 1.68-2.05 2.52-4.15.84-2.11.48-3.31m72.26-22.24q4.69.6 6.31 3.31 1.63 2.7 1.26 5.77-.36 3.06-2.22 5.53-1.86 2.46-4.15 2.58-.84 2.53-2.64 3.49-1.81.96-3.97 1.32t-4.51.78q-2.34.42-4.39 2.11-2.04 1.68-3.42 3.3-1.39 1.63-2.23 3.19-1.44 2.64-2.52 6.49-.24 2.65 2.52 4.93 3.25 2.53 7.1 2.23 3.84-.3 6.19.36 2.34.66 3.54 1.86 2.65 2.77-.48 6.37-6.01 9.62-20.2 11.42-4.2.61-8.41.3-4.21-.3-8.18-3.18-3.96-2.89-6.25-7.82-5.05-11.3.84-26.33 5.65-14.06 16.96-21.64 12.38-8.41 28.85-6.37m69.38 46.16q0 6.37 1.57 11.06 0 3.85-1.81 5.47-1.8 1.62-4.51 1.68-2.7.06-5.71-1.08-3-1.14-5.11-2.82-2.1-1.69-2.7-2.71t-1.93-3.07q-2.04-9.49-1.92-12.38t.48-4.93q-6.01 3.13-8.29 5.41-4.21 4.21-7.1 10.82-.96 5.29-1.56 5.59t-1.56.42q-.97.12-2.05.85-1.08.72-2.04 1.2t-1.93.96q-2.28 1.32-3 1.32-6.85 2.17-13.11-1.92-2.64-1.81-4.08-4.63-1.45-2.83-.73-6.07 5.17-22.24 14.19-45.33 5.53-14.07 10.58-22.24 1.2-1.93 2.41-4.09 2.52-4.33 3.48-5.89-1.2-3.13.06-5.47 1.27-2.35 3.85-3.73 2.59-1.38 5.95-1.86 3.37-.48 6.37-.12 7.22 1.08 7.7 5.65-.72 2.16-1.98 5.17-1.27 3-2.53 6.07t-2.4 5.71q-1.15 2.65-1.69 3.91t-1.56 4.33q-1.02 3.06-2.16 6.61-1.15 3.55-2.11 6.55l-1.44 4.21q-.48 1.68-1.56 5.11-1.09 3.43-2.29 8.48 1.56-1.21 2.59-2.83 1.02-1.62 3-3.67 1.99-2.04 5.17-4.02 3.19-1.99 6.79-2.59 7.82-1.32 14.19 5.05 4.81 4.81 3.01 14.43-.72 3.97-1.75 7.99-1.02 4.03-.78 7.4m-448.94 141.09q-6.13.24-11.24-1.5-5.11-1.75-8.3-4.75-3.18-3.01-4.02-7.03-.85-4.03 1.44-8.24 3.13-5.05 12.5-3.01 7.1 1.45 9.8 1.57 2.71.12 4.63-.72 8.78-2.89 9.86-6.26.72-2.52-3.13-5.89-1.56-1.44-3.48-2.88-1.93-1.45-3.25-2.89-6.01-4.45-9.44-10.28-3.42-5.83-2.82-12.68.6-6.86 2.28-11.36 1.68-4.51 4.21-8 4.45-6.13 11.54-9.98 8.18-4.21 13.11-5.41 9.74-2.16 19.71-.36 3.37.6 5.78 2.29 2.4 1.68 4.8 3.48 4.21 4.21 2.05 8.54-.84 1.92-2.65 3.12-1.8 1.21-3.84 1.33.24 3.24-1.21 4.81-2.76 2.76-9.61 3.6-9.86-.72-13.35 1.08-4.09 2.17-3.01 9.38.24 1.57 1.99 3.25 1.74 1.68 4.09 3.61 2.34 1.92 4.93 4.32 2.58 2.41 4.5 5.53 6.74 11.07-1.08 25.85-5.77 11.06-19.72 16.6-7.21 2.88-17.07 2.88m63.24-58.3q2.53-1.8 6.25-.84.73.12 1.45.12 2.64-5.41 9.13-5.65 1.69-.12 4.69-.6 3.01-.48 7.28.24t7.51 2.52q7.1 3.85 8.54 11.06 2.88 10.58-.84 23.09-3.97 13.82-13.47 22.12-4.33 3.85-9.14 4.87t-8.65 1.14q-3.85.12-7.04.06-3.18-.06-6.19-.66-6.49-1.32-10.7-6.13-4.93-5.41-4.21-16.83.48-10.1 5.11-20.38t10.28-14.13m21.16 24.17q-3 .96-5.65.84-1.32 1.32-2.34 2.82-1.02 1.51-2.71 2.77-1.68 1.26-1.68 1.02-2.04 2.89-3.37 5.95-1.32 3.07 0 6.19 4.81.48 7.1-.24 2.28-.72 4.26-2.76 1.99-2.05 3.07-4.81 2.16-5.17 1.32-11.78m48.63 22.47q-.79 2.52-1.75 4.45-.96 1.92-2.88 3.6-1.93 1.69-4.57 3.19-2.65 1.5-5.05 2.1-5.53 1.21-5.77-3.24-.36-1.2-1.51-1.38-1.14-.18-2.1-.67-2.52-1.08-1.44-5.89 1.92-6.61 4.21-16.05 2.28-9.44 5.89-20.74 8.53-27.41 21.16-49.41.84-1.08 1.92-2.83 1.08-1.74 2.77-3.18 4.2-3.85 10.34-1.81-.12 1.57.72 2.83t1.92 2.58q2.77 3.13 2.53 5.65-12.75 30.18-22.97 67.45-1.2 4.33-1.92 7.58-.72 3.24-1.5 5.77m27.36-48.08q3.36-3.25 7.51-3.79t7.34.9q3.18 1.44 4.69 4.63 1.5 3.19-.43 7.27-4.08 6.02-6.49 12.99-2.4 6.97-4.45 14.07 11.06-6.98 18.52-20.8 2.16-4.09 4.69-8.3l1.8-3.37 3.61-5.77q.72-2.28 2.52-2.94 1.81-.66 3.91-.66t4.27.06q2.16.06 3.97-1.15 1.8-1.2 4.26-.9 2.47.3 4.45 1.63 1.99 1.32 3.01 3.18t.18 3.67q-5.05 10.82-13.83 40.28-2.04 6.61-3.85 11.06-3 3.72-7.57 5.05-4.57 1.32-8.6.78-4.02-.54-6.43-2.77-2.4-2.22-1.08-5.59-3.37 2.77-6.97 5.05-3.61 2.29-8.72 3.01t-9.8-.42q-4.69-1.15-7.99-4.39-3.31-3.25-3.55-8.66-.72-19 15.03-44.12"/><path fill="#056a3c" d="m1020.006 160.503.12-.48 1.08-1.09q1.32-3.12 2.89-3.72.84-.24 2.16-.61 1.32-.36 3.49-1.8.84-1.68 3.48-1.5 2.65.18 5.23 1.68 2.59 1.5 4.21 4.15 1.63 2.64.78 5.47-.84 2.83-1.38 4.21t-1.08 2.58q-.54 1.21-1.32 2.71t-1.99 4.03l-3.96 8.29q-.61 1.56-1.03 1.81-.42.24-.78.84 1.08-.24 1.81-.36l1.44-.24q1.68-.24 3.85-.49 1.32.25 2.28.25h1.68q1.45 0 3.49.78t2.64 2.7q.61 1.93.13 3.91-.49 1.98-1.93 3.67-1.44 1.68-3.73 1.8-10.46 2.89-14.9 3.13l-.73.84v.12q-1.2 2.88-2.58 7.27t-3.01 9.5q-1.62 5.11-3.3 10.58-1.69 5.47-3.49 10.52-5.77 16.95-8.42 18.39-.96.49-1.98.67t-1.14.3q-4.21-.24-6.97-1.69-2.77-1.44-3.73-2.76t-.48-3.01q2.28-20.92 9.13-45.8-2.4 0-3.36.48-1.81.96-4.33 1.08h-.12q-1.92-.12-3.49-1.81-1.56-1.68-1.92-3.84-.36-2.17.72-4.45 1.08-2.29 4.33-3.61 3.85-1.08 5.65-1.8 3.49-1.44 5.83-2.05 2.35-.6 2.65-.78t.42-.3q.36-.24 1.8-.24.72-3.48 1.44-7.09t1.81-7.34q2.4-8.65 6.61-14.9m35.71 37.87q1.56-3.97 7.45-5.41 5.53-1.44 10.34.36 4.93 1.92 4.45 6.25-1.32 4.21-3.31 10.28-1.98 6.07-3.78 12.44-4.81 16.36-5.53 23.09-1.81 10.82-6.02 11.66-1.2.24-2.28.36-2.65.12-3.37 1.44-.72 1.33-2.4 1.99t-3.67.6q-1.98-.06-4.03-.96-2.04-.9-3.48-2.59-3.37-4.09-1.32-10.94 1.92-13.1 9.73-33.3 3.73-9.98 7.22-15.27m22.72-18.04q-5.89 1.21-9.56-.72-3.66-1.92-4.27-4.63-.6-2.7 1.69-5.59 2.64-3.6 7.93-4.69 2.41-.24 3.49-.24t2.64.48q3.97.37 5.17 3.49 1.69 2.65.3 6.01-1.38 3.37-7.39 5.89m16.83 18.77q2.53-1.8 6.25-.84.73.12 1.45.12 2.64-5.41 9.14-5.65 1.68-.12 4.68-.6 3.01-.48 7.28.24t7.51 2.52q7.1 3.85 8.54 11.06 2.88 10.58-.84 23.09-3.97 13.82-13.47 22.12-4.33 3.85-9.14 4.87t-8.65 1.14q-3.85.12-7.04.06-3.18-.06-6.19-.66-6.49-1.32-10.7-6.13-4.93-5.41-4.21-16.83.48-10.1 5.11-20.38t10.28-14.13m21.16 24.17q-3 .96-5.65.84-1.32 1.32-2.34 2.82-1.02 1.51-2.71 2.77-1.68 1.26-1.68 1.02-2.04 2.89-3.37 5.95-1.32 3.07 0 6.19 4.81.48 7.1-.24 2.28-.72 4.26-2.76 1.99-2.05 3.07-4.81 2.16-5.17 1.32-11.78m45.09-24.89q8.05-3.25 10.82-.12 1.44 1.68 1.44 4.69v.6q4.45-5.17 15.51-8.66 11.66-3.61 19.24-2.04 9.86 2.04 11.06 12.86.96 9.14-4.21 23.21-1.68 3.6-2.58 5.83-.9 2.22-1.63 4.03-1.56 3.36-4.93 8.05-1.92 3.61-5.95 5.53-4.02 1.93-7.93 2.23t-6.43-1.21q-2.53-1.5-1.45-4.75 2.77-7.45 4.57-13.58 1.81-6.13 3.73-10.46 1.8-6.13.48-7.7-1.08-1.2-3.73.36-2.28 1.45-3.24 3.37-2.17 1.56-8.18 12.5-1.68 3.01-3.31 5.96-1.62 2.94-3 5.47-1.38 2.52-2.41 4.2-1.02 1.69-1.8 2.23t-1.32.72-.9.42-.6 1.56q-.49 2.77-5.78 4.09-8.53 2.17-15.38-.72-2.29-.96-3.61-2.64-2.77-5.54 9.5-37.64 4.32-11.3 5.65-13.46 3-4.57 3.9-5.17.91-.6 2.47.24m101.7 54.94q-4.69 3.85-11.12 5.83-6.43 1.99-12.92 2.11t-12.15-1.56q-5.65-1.69-8.89-5.29-3.85-4.09-2.65-8.18.6-1.68 2.11-2.65 1.5-.96 3.66-.48 1.45.12 2.11-.78t1.14-2.04 1.08-2.17q.6-1.02 1.93-1.02 21.16.6 22-3.72-1.45-1.33-3.55-2.29t-4.27-1.92q-5.29-2.41-7.09-5.29-2.29-1.21-3.49-5.77-.6-2.05-.6-4.21 0-2.17.72-3.97-.36-4.69 5.77-10.34 1.69-1.56 4.21-3.37 2.53-1.8 7.58-3.48 5.05-1.69 10.04-2.47 4.98-.78 9.01-.54t5.77 1.93q1.75 1.68 2.77 4.2 1.02 2.53.66 4.93-.96 5.41-8.9 7.46-9.98 1.44-9.62 2.64 0 .24-.84.6 9.26 6.38 12.87 12.51 4.93 8.41 1.44 18.75.6 3.37-6.01 8.42-1.56 1.2-2.77 2.16"/><rect width="578.421" height="262.25" x="325.686" y="-381.672" fill="none" rx="0" ry="0" transform="translate(410.89 405.29)"/></g><path fill="transparent" stroke="transparent" d="M710.5 0h579v286h-579z"/></g></svg>