<svg xmlns="http://www.w3.org/2000/svg" xml:space="preserve" width="2000" height="286" data-id="lg_dy5iw3MlluhXaq6Slz" data-version="1"><g data-padding="20"><g transform="translate(10 4.864)scale(.96599)"><path fill="#9fa6b2" d="M1144.729 145.846c3.7 10.474 22.507 17.782 43.356 16.847 20.848-.936 36.849-9.805 36.884-20.447 0-11.34-18.054-20.58-40.356-20.58-19.588 0-36.344 7.14-39.766 16.92h-284.97c-3.698-10.46-22.48-17.755-43.297-16.82-20.817.936-36.792 9.793-36.825 20.42 0 11.34 18.054 20.52 40.356 20.52 10.738 0 21.004-2.16 28.556-6 5.9-2.94 9.794-6.78 11.21-10.92h284.852Z"/><path fill="#9fa6b2" d="M1261.903 184.066c-15.805-8.034-41.425-8.034-57.23 0-5.9 3-9.794 6.84-11.21 10.98h-66.316c-14.89-.076-26.885-6.23-26.904-13.8 0-11.551-18.347-20.934-41.064-21H945.19c-22.656.06-41.064 9.48-41.064 21 0 7.56-12.036 13.74-26.904 13.8h-66.198c-1.416-4.14-5.31-7.98-11.21-10.98-15.784-7.97-41.276-7.944-56.994.06-15.675 8.026-15.623 20.988.118 28.98 15.713 7.92 41.045 7.92 56.758 0 5.9-2.94 9.794-6.72 11.21-10.86h66.316c22.656-.06 41.064-9.48 41.064-21 0-7.56 12.036-13.74 26.904-13.8h113.988c14.868.06 26.904 6.24 26.904 13.8 0 11.55 18.347 20.934 41.064 21h66.316c1.416 4.14 5.31 7.92 11.21 10.86 15.77 8.036 41.367 8.049 57.17.03s15.83-21.034.06-29.07"/><path fill="#9fa6b2" d="M1162.204 223.426c-10.738 0-21.122 2.16-28.674 6.06-6.844 3.48-10.974 8.1-11.682 12.96h-9.558c-14.986-.06-28.202-4.8-33.394-11.94l-22.066-30.3a50.15 25.5 0 0 0-46.728-16.56h-15.34c-20.768 0-39.412 6.6-46.728 16.5l-22.066 30.36a35.99 18.3 0 0 1-33.394 11.94h-9.558c-1.792-11.217-21.128-19.571-43.188-18.66s-38.49 10.743-36.698 21.96a40.073 20.376 0 0 0 68.204 12.78c4.838-2.52 8.378-5.58 10.266-8.88h10.856c20.886-.06 39.412-6.66 46.728-16.62l22.066-30.3a35.754 18.18 0 0 1 33.394-11.82h15.34c14.868 0 28.202 4.68 33.394 11.82l22.066 30.36a50.15 25.5 0 0 0 46.728 16.62h10.856c2.124 3.3 5.546 6.36 10.148 8.88v-.06c8.26 3.9 17.818 6 28.674 6 22.302.06 40.474-9.12 40.474-20.46.118-11.4-17.818-20.58-40.12-20.64M799.697 100.492l.118-.06c5.9-3 9.794-6.84 11.21-10.98h66.316c14.868.06 26.904 6.24 26.904 13.8 0 11.55 18.347 20.934 41.064 21h113.988c22.656-.06 41.064-9.48 41.064-21 0-7.56 12.036-13.74 26.904-13.8h66.316c1.416 4.14 5.31 7.98 11.21 10.98a40.309 20.496 0 0 0 57.112 0 40.309 20.496 0 0 0 0-29.04 40.309 20.496 0 0 0-57.112 0c-5.9 2.94-9.794 6.72-11.21 10.86h-66.316c-22.656.06-41.064 9.48-41.064 21 0 7.56-12.036 13.74-26.904 13.8H945.309c-14.89-.076-26.885-6.23-26.904-13.8 0-11.551-18.347-20.934-41.064-21h-66.316c-1.416-4.14-5.31-7.92-11.21-10.86-15.772-8.05-41.392-8.077-57.23-.06-15.833 8.02-15.885 21.047-.118 29.1 15.772 8.05 41.392 8.077 57.23.06"/><path fill="#9fa6b2" d="M871.098 55.006c6.844-3.48 10.974-8.04 11.682-12.96h9.558c14.986.06 28.202 4.8 33.394 11.94l22.066 30.3a50.15 25.5 0 0 0 46.728 16.56h15.34c20.768 0 39.412-6.6 46.728-16.5l22.066-30.36a35.99 18.3 0 0 1 33.394-11.94h9.558c1.792 11.217 21.128 19.57 43.188 18.66s38.49-10.743 36.698-21.96a40.073 20.376 0 0 0-68.204-12.78c-4.838 2.52-8.378 5.58-10.266 8.88h-10.856c-20.886.06-39.412 6.66-46.728 16.62l-22.066 30.3a35.754 18.18 0 0 1-33.394 11.82h-15.34c-14.868 0-28.202-4.68-33.394-11.82l-22.066-30.36a50.15 25.5 0 0 0-46.728-16.62H881.6c-2.124-3.3-5.546-6.36-10.148-8.88v.06c-8.26-3.9-17.818-6-28.674-6a40.415 20.55 0 0 0-28.556 35.1 40.12 20.4 0 0 0 56.876-.06"/><path fill="#091133" d="M836.4 112.566q6.95.72 10.37.72t10.37-.96q2.16.72 2.52 1.8t.24 2.22.12 2.22 2.28 1.8q1.07.36.65 2.1-.42 1.73-1.97 3.77-3.96 5.16-9.36 7.2-8.63 2.15-13.54 2.51-8.16.6-17.75-.6-10.55-1.91-10.19-8.75 0-25.18 11.03-50.59 3.6-8.28 8.15-17.39.96-1.92 1.14-4.31.18-2.4.3-4.68t.72-4.08 2.52-2.52q24.94-9.95 39.45-7.67 5.03.12 6.65 3.42t.36 7.37q-1.26 4.08-4.92 7.68-3.65 3.59-9.17 4.43-7.07 2.04-8.63 2.76-3 1.44-4.32 3.84-1.68 2.63-3.11 5.03-1.44 2.4-2.04 5.16l-.48 2.63q2.28 1.08 5.57.66 3.3-.42 6.12-.83 2.82-.42 4.55-.06 1.74.35.72 3.53t-3.71 7.14q-2.7 3.95-7.62 5.75-3.11.6-4.25.9t-1.74.42q-.84.12-4.8.36-5.63 9.59-6.83 14.87-.48 2.15.6 2.15m84.88-43.76q4.68.6 6.3 3.3t1.26 5.75q-.36 3.06-2.22 5.52t-4.14 2.58q-.84 2.52-2.63 3.47-1.8.96-3.96 1.32t-4.5.78-4.37 2.1q-2.04 1.68-3.42 3.3t-2.22 3.18q-1.44 2.63-2.52 6.47-.24 2.64 2.52 4.92 3.24 2.51 7.08 2.21 3.83-.3 6.17.36t3.54 1.86q2.63 2.76-.48 6.36-6 9.59-20.15 11.39-4.19.6-8.39.3-4.19-.3-8.15-3.18t-6.24-7.79q-5.03-11.27.84-26.26 5.64-14.03 16.91-21.58 12.35-8.4 28.77-6.36m20.99 7.68q2.51-1.8 6.23-.84.72.12 1.44.12 2.64-5.4 9.11-5.64 1.68-.12 4.68-.6 2.99-.48 7.25.24t7.49 2.52q7.08 3.84 8.52 11.03 2.87 10.55-.84 23.02-3.96 13.79-13.43 22.06-4.32 3.84-9.11 4.86-4.8 1.02-8.64 1.14-3.83.12-7.01.06t-6.17-.66q-6.48-1.32-10.67-6.12-4.92-5.39-4.2-16.78.48-10.08 5.09-20.33 4.62-10.25 10.26-14.08m21.1 24.09q-3 .96-5.64.84-1.32 1.32-2.34 2.82-1.01 1.5-2.69 2.76t-1.68 1.02q-2.04 2.88-3.36 5.93-1.32 3.06 0 6.18 4.8.48 7.07-.24 2.28-.72 4.26-2.76t3.06-4.8q2.16-5.15 1.32-11.75m57.43-62.58.12-.48 1.08-1.08q1.32-3.12 2.87-3.72.84-.24 2.16-.6t3.48-1.79q.84-1.68 3.48-1.5 2.63.18 5.21 1.68 2.58 1.49 4.2 4.13t.78 5.46-1.38 4.19q-.54 1.38-1.08 2.58t-1.32 2.7-1.98 4.02l-3.95 8.27q-.6 1.56-1.02 1.8t-.78.84q1.08-.24 1.8-.36l1.43-.24q1.68-.24 3.84-.48 1.32.24 2.28.24h1.68q1.44 0 3.47.78 2.04.78 2.64 2.69.6 1.92.12 3.9t-1.92 3.66q-1.43 1.68-3.71 1.8-10.43 2.87-14.87 3.11l-.72.84v.12q-1.2 2.88-2.58 7.26l-2.99 9.47q-1.62 5.09-3.3 10.55-1.68 5.45-3.48 10.49-5.75 16.9-8.39 18.34-.96.48-1.98.66t-1.14.3q-4.2-.24-6.95-1.68-2.76-1.43-3.72-2.75t-.48-3q2.28-20.86 9.11-45.68-2.39 0-3.35.48-1.8.96-4.32 1.08h-.12q-1.92-.12-3.48-1.8t-1.92-3.84.72-4.43q1.08-2.28 4.32-3.6 3.84-1.08 5.64-1.8 3.47-1.44 5.81-2.04t2.64-.78.42-.3q.36-.24 1.8-.24.72-3.47 1.43-7.07.72-3.6 1.8-7.31 2.4-8.64 6.6-14.87m61.62 71.94q-2.27 1.08-4.43 1.68-2.16.59-5.04 1.19-7.55 1.56-10.91 1.8.36 1.2 3.6 2.88 2.16.36 4.73-.66 2.58-1.02 5.4-1.92t5.51-1.02q2.7-.12 5.1 2.04.96 2.16 1.56 2.52t1.08.36 1.08.36 1.74 2.76q1.13 2.39-.6 4.55-1.74 2.16-5.34 3.72t-8.39 2.52q-4.8.96-9.59 1.32-10.79.84-16.43-1.68-8.15-2.76-10.55-10.91-3.12-10.79 3.48-25.18 2.99-6.72 9.47-14.39 5.63-6.71 12.59-9.71 8.03-3.48 16.78-3.24 9.36.24 12.95 8.16 1.8 4.19.72 11.75-1.92 9.83-5.03 13.9-3.12 3.96-9.48 7.2m-6.95-18.95q-6.35-1.32-9.95 7.2-1.08 2.28-1.68 4.79 4.08.48 8.63-4.55 1.68-2.04 2.52-4.14t.48-3.3m72.06-22.18q4.67.6 6.29 3.3t1.26 5.75q-.36 3.06-2.22 5.52t-4.13 2.58q-.84 2.52-2.64 3.47-1.8.96-3.96 1.32t-4.49.78q-2.34.42-4.38 2.1t-3.42 3.3-2.22 3.18q-1.43 2.63-2.51 6.47-.24 2.64 2.51 4.92 3.24 2.51 7.08 2.21t6.17.36q2.34.66 3.54 1.86 2.64 2.76-.48 6.36-5.99 9.59-20.14 11.39-4.2.6-8.39.3-4.2-.3-8.16-3.18-3.95-2.88-6.23-7.79-5.04-11.27.84-26.26 5.63-14.03 16.9-21.58 12.35-8.4 28.78-6.36m69.18 46.04q0 6.36 1.56 11.03 0 3.84-1.8 5.46t-4.5 1.68-5.69-1.08q-3-1.14-5.1-2.82t-2.7-2.7-1.92-3.05q-2.03-9.48-1.91-12.35.12-2.88.48-4.92-6 3.12-8.28 5.4-4.19 4.19-7.07 10.79-.96 5.27-1.56 5.57t-1.56.42-2.04.84-2.03 1.2l-1.92.96q-2.28 1.32-3 1.32-6.83 2.16-13.07-1.92-2.64-1.8-4.08-4.62-1.43-2.81-.71-6.05 5.15-22.18 14.14-45.2 5.52-14.03 10.55-22.18 1.2-1.92 2.4-4.08 2.52-4.32 3.48-5.87-1.2-3.12.06-5.46t3.84-3.72q2.57-1.38 5.93-1.86 3.36-.47 6.35-.12 7.2 1.08 7.68 5.64-.72 2.16-1.98 5.16-1.26 2.99-2.52 6.05t-2.4 5.7q-1.14 2.63-1.67 3.89-.54 1.26-1.56 4.32t-2.16 6.59q-1.14 3.54-2.1 6.54l-1.44 4.19q-.48 1.68-1.56 5.1t-2.27 8.45q1.55-1.2 2.57-2.82 1.02-1.61 3-3.65t5.16-4.02q3.17-1.98 6.77-2.58 7.79-1.32 14.15 5.04 4.79 4.79 2.99 14.39-.71 3.95-1.73 7.97t-.78 7.37m-448.46 142.23q-6.11.24-11.21-1.5-5.09-1.74-8.27-4.73-3.18-3-4.02-7.02-.84-4.01 1.44-8.21 3.12-5.03 12.47-3 7.07 1.44 9.77 1.56t4.62-.72q8.75-2.87 9.83-6.23.72-2.52-3.12-5.88-1.56-1.44-3.48-2.87-1.91-1.44-3.23-2.88-6-4.44-9.41-10.25-3.42-5.82-2.82-12.65.6-6.84 2.28-11.33 1.67-4.5 4.19-7.98 4.44-6.11 11.51-9.95 8.16-4.19 13.07-5.39 9.71-2.16 19.66-.36 3.36.6 5.76 2.28t4.79 3.47q4.2 4.2 2.04 8.52-.84 1.91-2.63 3.11-1.8 1.2-3.84 1.32.24 3.24-1.2 4.8-2.76 2.76-9.59 3.6-9.83-.72-13.31 1.07-4.08 2.16-3 9.36.24 1.55 1.98 3.23t4.08 3.6q2.33 1.92 4.91 4.32 2.58 2.39 4.5 5.51 6.71 11.03-1.08 25.78-5.76 11.03-19.66 16.54-7.2 2.88-17.03 2.88m63.06-58.15q2.51-1.8 6.23-.84.72.12 1.44.12 2.64-5.39 9.11-5.63 1.68-.12 4.68-.6t7.25.24q4.26.72 7.5 2.52 7.07 3.83 8.51 11.03 2.88 10.55-.84 23.02-3.96 13.78-13.43 22.06-4.32 3.83-9.11 4.85-4.8 1.02-8.63 1.14-3.84.12-7.02.06t-6.17-.66q-6.48-1.32-10.67-6.11-4.92-5.4-4.2-16.79.48-10.07 5.1-20.32 4.61-10.25 10.25-14.09m21.1 24.1q-3 .96-5.64.84-1.32 1.32-2.33 2.82-1.02 1.5-2.7 2.76t-1.68 1.02q-2.04 2.87-3.36 5.93t0 6.17q4.8.48 7.08-.24 2.27-.71 4.25-2.75t3.06-4.8q2.16-5.15 1.32-11.75m48.51 22.42q-.78 2.52-1.74 4.44t-2.88 3.6q-1.92 1.67-4.56 3.17-2.63 1.5-5.03 2.1-5.52 1.2-5.76-3.24-.36-1.2-1.5-1.38-1.13-.18-2.09-.65-2.52-1.08-1.44-5.88 1.92-6.59 4.19-16.01 2.28-9.41 5.88-20.68 8.51-27.33 21.1-49.27.84-1.08 1.92-2.82t2.76-3.18q4.19-3.84 10.31-1.8-.12 1.56.72 2.82t1.92 2.58q2.75 3.11 2.51 5.63-12.71 30.1-22.9 67.26-1.2 4.32-1.92 7.56-.71 3.23-1.49 5.75m27.27-47.96q3.36-3.23 7.5-3.77 4.13-.54 7.31.9t4.68 4.61q1.49 3.18-.42 7.26-4.08 5.99-6.48 12.94-2.4 6.96-4.43 14.03 11.03-6.95 18.46-20.74 2.16-4.08 4.68-8.27l1.79-3.36 3.6-5.75q.72-2.28 2.52-2.94t3.89-.66q2.1 0 4.26.06t3.96-1.14 4.25-.9q2.46.3 4.44 1.62t3 3.18q1.02 1.85.18 3.65-5.04 10.79-13.79 40.17-2.04 6.59-3.84 11.03-2.99 3.72-7.55 5.03-4.56 1.32-8.57.78-4.02-.54-6.42-2.75-2.4-2.22-1.08-5.58-3.35 2.76-6.95 5.04-3.6 2.27-8.69 2.99-5.1.72-9.77-.42-4.68-1.13-7.98-4.37-3.29-3.24-3.53-8.63-.72-18.95 14.98-44.01"/><path fill="#091133" d="m1017.75 160.446.12-.48 1.08-1.08q1.32-3.12 2.88-3.72.84-.24 2.16-.6t3.48-1.8q.84-1.68 3.47-1.5 2.64.18 5.22 1.68t4.19 4.14q1.62 2.64.78 5.45-.83 2.82-1.37 4.2t-1.08 2.58-1.32 2.7q-.78 1.49-1.98 4.01l-3.96 8.28q-.6 1.55-1.02 1.79t-.78.84q1.08-.24 1.8-.36l1.44-.24q1.68-.24 3.84-.48 1.32.24 2.28.24h1.67q1.44 0 3.48.78t2.64 2.7.12 3.9-1.92 3.65q-1.44 1.68-3.72 1.8-10.43 2.88-14.86 3.12l-.72.84v.12q-1.2 2.88-2.58 7.25-1.38 4.38-3 9.47-1.62 5.1-3.29 10.56-1.68 5.45-3.48 10.49-5.76 16.9-8.39 18.34-.96.48-1.98.66t-1.14.3q-4.2-.24-6.96-1.68-2.75-1.44-3.71-2.76t-.48-2.99q2.28-20.87 9.11-45.68-2.4 0-3.36.48-1.8.95-4.31 1.07h-.12q-1.92-.12-3.48-1.79-1.56-1.68-1.92-3.84t.72-4.44q1.08-2.27 4.32-3.59 3.83-1.08 5.63-1.8 3.48-1.44 5.82-2.04t2.64-.78q.29-.18.41-.3.36-.24 1.8-.24.72-3.48 1.44-7.07.72-3.6 1.8-7.32 2.4-8.63 6.59-14.86m35.61 37.76q1.56-3.95 7.44-5.39 5.51-1.44 10.31.36 4.91 1.92 4.43 6.23-1.31 4.2-3.29 10.25-1.98 6.06-3.78 12.41-4.8 16.31-5.51 23.02-1.8 10.79-6 11.63-1.2.24-2.28.36-2.64.12-3.35 1.44-.72 1.32-2.4 1.98t-3.66.6-4.02-.96q-2.03-.9-3.47-2.58-3.36-4.07-1.32-10.91 1.92-13.07 9.71-33.21 3.72-9.95 7.19-15.23m22.66-17.98q-5.87 1.2-9.53-.72-3.65-1.92-4.25-4.62-.6-2.69 1.67-5.57 2.64-3.6 7.92-4.68 2.4-.24 3.47-.24 1.08 0 2.64.48 3.96.36 5.16 3.48 1.68 2.64.3 5.99-1.38 3.36-7.38 5.88m16.78 18.7q2.52-1.8 6.23-.84.72.12 1.44.12 2.64-5.39 9.11-5.63 1.68-.12 4.68-.6t7.25.24q4.26.72 7.5 2.52 7.07 3.83 8.51 11.03 2.88 10.55-.84 23.02-3.96 13.78-13.43 22.06-4.31 3.83-9.11 4.85-4.79 1.02-8.63 1.14t-7.02.06q-3.17-.06-6.17-.66-6.47-1.32-10.67-6.11-4.92-5.4-4.2-16.79.48-10.07 5.1-20.32 4.61-10.25 10.25-14.09m21.1 24.1q-3 .96-5.63.84-1.32 1.32-2.34 2.82t-2.7 2.76-1.68 1.02q-2.04 2.87-3.36 5.93-1.31 3.06 0 6.17 4.8.48 7.08-.24 2.28-.71 4.25-2.75 1.98-2.04 3.06-4.8 2.16-5.15 1.32-11.75m44.96-24.82q8.03-3.23 10.79-.12 1.44 1.68 1.44 4.68v.6q4.44-5.16 15.47-8.63 11.63-3.6 19.18-2.04 9.83 2.04 11.03 12.83.96 9.11-4.19 23.14-1.68 3.59-2.58 5.81t-1.62 4.02q-1.56 3.36-4.92 8.03-1.92 3.6-5.93 5.52-4.02 1.91-7.91 2.21-3.9.3-6.42-1.19-2.52-1.5-1.44-4.74 2.76-7.43 4.56-13.55 1.8-6.11 3.71-10.43 1.8-6.11.48-7.67-1.07-1.2-3.71.36-2.28 1.44-3.24 3.35-2.16 1.56-8.15 12.47-1.68 3-3.3 5.94t-3 5.45q-1.38 2.52-2.39 4.2-1.02 1.68-1.8 2.22t-1.32.72-.9.42-.6 1.56q-.48 2.75-5.76 4.07-8.51 2.16-15.34-.72-2.28-.96-3.6-2.64-2.76-5.51 9.47-37.52 4.32-11.27 5.64-13.43 2.99-4.56 3.89-5.16t2.46.24m101.43 54.8q-4.67 3.83-11.09 5.81-6.41 1.98-12.89 2.1-6.47.12-12.1-1.56-5.64-1.68-8.88-5.28-3.83-4.07-2.63-8.15.59-1.68 2.09-2.64t3.66-.48q1.44.12 2.1-.77.66-.9 1.14-2.04t1.08-2.16 1.91-1.02q21.11.6 21.95-3.72-1.44-1.32-3.54-2.28-2.1-.95-4.26-1.91-5.27-2.4-7.07-5.28-2.28-1.2-3.48-5.75-.6-2.04-.6-4.2t.72-3.96q-.36-4.67 5.76-10.31 1.68-1.56 4.19-3.35 2.52-1.8 7.56-3.48 5.03-1.68 10.01-2.46 4.97-.78 8.99-.54t5.75 1.92q1.74 1.68 2.76 4.2 1.02 2.51.66 4.91-.96 5.4-8.87 7.43-9.95 1.44-9.59 2.64 0 .24-.84.6 9.23 6.36 12.83 12.47 4.91 8.39 1.44 18.7.6 3.36-6 8.4-1.56 1.2-2.76 2.16"/><rect width="584.105" height="264.827" x="318.648" y="-385.867" fill="none" rx="0" ry="0" transform="translate(416.29 406.94)"/></g><path fill="transparent" stroke="transparent" d="M706 0h588v286H706z"/></g></svg>